<svg xmlns="http://www.w3.org/2000/svg" id="Layer_1" height="512" viewBox="0 0 512 512" width="512"><g><path d="m89 345.503v1.997c0 8.284 6.716 15 15 15h148c8.284 0 15-6.716 15-15v-1.997c0-7.865-1.266-15.437-3.578-22.541h-170.844c-2.312 7.103-3.578 14.675-3.578 22.541z"></path><path d="m227.312 102.772c-11.211 7.831-25.029 12.436-40.556 13.333-20.402 1.178-41.119-4.447-57.375-14.958-11.318 26.414-22.642 52.828-33.971 79.237 55.456 28.172 109.725 28.171 165.181 0-4.479-10.443-8.957-20.889-13.434-31.333-6.613-15.426-13.227-30.854-19.845-46.279z"></path><path d="m356 277.961v-262.961c0-8.284-6.716-15-15-15h-326c-8.284 0-15 6.716-15 15v262.961c0 8.284 6.716 15 15 15h326c8.284 0 15-6.715 15-15zm-68.733-77.933c-36.252 20.93-72.759 31.395-109.266 31.395s-73.015-10.465-109.267-31.395c-6.581-3.8-9.281-11.92-6.285-18.904 15.81-36.851 31.61-73.705 47.399-110.564 2.052-4.791 6.444-8.173 11.6-8.933 5.158-.761 10.338 1.21 13.685 5.205 10.616 12.668 30.665 20.441 49.894 19.323 8.921-.515 25.305-3.53 34.787-17.937 3.034-4.609 8.348-7.187 13.852-6.694 5.497.486 10.283 3.952 12.46 9.022 9.544 22.224 19.074 44.455 28.604 66.685 6.272 14.632 12.545 29.263 18.821 43.893 2.997 6.983.297 15.104-6.284 18.904z"></path><path d="m313 392c-8.284 0-15 6.716-15 15v60c0 8.284 6.716 15 15 15h94.997c.53 0 1.052.036 1.567.094v-90.187c-.515.058-1.037.094-1.567.094h-94.997z"></path><path d="m468.998 362h-29.433v150h29.433c23.711 0 43.002-19.291 43.002-43.002v-63.995c0-23.712-19.291-43.003-43.002-43.003z"></path><path d="m56 407v-84.039h-30v84.039c0 24.813 20.187 45 45 45h197v-30h-197c-8.271 0-15-6.729-15-15z"></path></g></svg>